<?xml version="1.0" encoding="utf-8"?>
<!-- Generator: Adobe Illustrator 25.0.0, SVG Export Plug-In . SVG Version: 6.00 Build 0)  -->
<svg version="1.1" id="Capa_1" xmlns="http://www.w3.org/2000/svg" xmlns:xlink="http://www.w3.org/1999/xlink" x="0px" y="0px"
	 viewBox="0 0 100 100" style="enable-background:new 0 0 100 100;" xml:space="preserve">
<style type="text/css">
	.Sombra_x0020_paralela{fill:none;}
	.Neón_x0020_azul_x0020_grueso{fill:none;stroke:#0073BC;stroke-width:10;stroke-linecap:round;stroke-linejoin:round;}
	.Agua_x0020_iluminada{fill:url(#SVGID_1_);stroke:#FFFFFF;stroke-width:0.25;stroke-miterlimit:1;}
	.Resalte_x0020_en_x0020_negro_x0020_{fill:url(#SVGID_2_);stroke:#FFFFFF;stroke-width:0.3629;stroke-miterlimit:1;}
	.Coco_GS{fill-rule:evenodd;clip-rule:evenodd;fill:#FFDD00;}
	.st0{fill:#F4F4F4;}
	.st1{fill:#43C2D1;}
	.st2{fill:#E24E4C;}
	.st3{fill:#CB4644;}
	.st4{fill:#EAE5E4;}
</style>
<linearGradient id="SVGID_1_" gradientUnits="userSpaceOnUse" x1="0" y1="0" x2="6.123234e-17" y2="-1">
	<stop  offset="0" style="stop-color:#1D59F4"/>
	<stop  offset="0.618" style="stop-color:#2D65EE"/>
	<stop  offset="0.6292" style="stop-color:#3864F3"/>
	<stop  offset="0.9831" style="stop-color:#00DDFC"/>
</linearGradient>
<linearGradient id="SVGID_2_" gradientUnits="userSpaceOnUse" x1="0" y1="0" x2="6.123234e-17" y2="-1">
	<stop  offset="0" style="stop-color:#060606"/>
	<stop  offset="0.618" style="stop-color:#000000"/>
	<stop  offset="0.6292" style="stop-color:#000000"/>
	<stop  offset="0.9831" style="stop-color:#000000"/>
</linearGradient>
<path class="st0" d="M38.7,90.8l48,0.2v4.2l-48-0.2L38.7,90.8L38.7,90.8z"/>
<path class="st1" d="M64.1,6.9l29.5,29.5c2,2,2,5.3,0,7.1L43.2,93.9c-2,2-5.3,2-7.1,0L6.6,64.4c-2-2-2-5.3,0-7.1L56.9,6.9
	C58.9,4.9,62.2,4.9,64.1,6.9z"/>
<path class="st2" d="M32.2,31.6L6.6,57.2c-2,2-2,5.3,0,7.1l29.5,29.5c2,2,5.3,2,7.1,0l25.6-25.6L32.2,31.6z"/>
<path class="st3" d="M18.1,45.7L6.6,57.2c-2,2-2,5.3,0,7.1l29.5,29.5c2,2,5.3,2,7.1,0l11.5-11.5L18.1,45.7z"/>
<path class="st4" d="M11.6,52.1l36.7,36.7l-3.4,3.4L8.3,55.5L11.6,52.1z"/>
</svg>
