<?xml version="1.0" encoding="utf-8"?>
<!-- Generator: Adobe Illustrator 25.0.0, SVG Export Plug-In . SVG Version: 6.00 Build 0)  -->
<svg version="1.1" id="Capa_1" xmlns="http://www.w3.org/2000/svg" xmlns:xlink="http://www.w3.org/1999/xlink" x="0px" y="0px"
	 viewBox="0 0 100 100" style="enable-background:new 0 0 100 100;" xml:space="preserve">
<style type="text/css">
	.Sombra_x0020_paralela{fill:none;}
	.Neón_x0020_azul_x0020_grueso{fill:none;stroke:#0073BC;stroke-width:10;stroke-linecap:round;stroke-linejoin:round;}
	.Agua_x0020_iluminada{fill:url(#SVGID_1_);stroke:#FFFFFF;stroke-width:0.25;stroke-miterlimit:1;}
	.Resalte_x0020_en_x0020_negro_x0020_{fill:url(#SVGID_2_);stroke:#FFFFFF;stroke-width:0.3629;stroke-miterlimit:1;}
	.Coco_GS{fill-rule:evenodd;clip-rule:evenodd;fill:#FFDD00;}
	.st0{fill:#FFE0A0;}
	.st1{fill:#FFD8A0;}
	.st2{fill:#F1C07A;}
	.st3{fill:#EEF1F6;}
	.st4{fill:#67362C;}
	.st5{fill:#FFF4B9;}
</style>
<linearGradient id="SVGID_1_" gradientUnits="userSpaceOnUse" x1="0" y1="0" x2="6.123234e-17" y2="-1">
	<stop  offset="0" style="stop-color:#1D59F4"/>
	<stop  offset="0.618" style="stop-color:#2D65EE"/>
	<stop  offset="0.6292" style="stop-color:#3864F3"/>
	<stop  offset="0.9831" style="stop-color:#00DDFC"/>
</linearGradient>
<linearGradient id="SVGID_2_" gradientUnits="userSpaceOnUse" x1="0" y1="0" x2="6.123234e-17" y2="-1">
	<stop  offset="0" style="stop-color:#060606"/>
	<stop  offset="0.618" style="stop-color:#000000"/>
	<stop  offset="0.6292" style="stop-color:#000000"/>
	<stop  offset="0.9831" style="stop-color:#000000"/>
</linearGradient>
<g>
	<path class="st0" d="M65.4,17.9L12.9,70.4c0.9,0.3,1.8,0.8,2.4,1.5c1.4,1.4,1.9,3.1,1.8,4.9l53.7-53.7L65.4,17.9z"/>
	<path class="st1" d="M70.7,23.1L17,76.8c1.8-0.1,3.5,0.4,4.9,1.8c1.4,1.4,1.9,3.1,1.8,4.9l53.7-53.7L70.7,23.1z"/>
	<path class="st2" d="M77.3,29.8L23.7,83.4c1.8-0.1,3.5,0.4,4.9,1.8c0.8,0.8,1.3,1.5,1.5,2.5l52.5-52.5L77.3,29.8z"/>
	<rect x="73.2" y="12.5" transform="matrix(0.7071 -0.7071 0.7071 0.7071 4.7892 60.8119)" class="st3" width="5.1" height="24.3"/>
	<path class="st4" d="M86.2,31.4l7.4-7.4c1.8-1.8,1.8-4.8,0-6.5L83,6.9c-1.8-1.8-4.8-1.8-6.5,0l-7.4,7.4L86.2,31.4z"/>
	<path class="st5" d="M11.2,93.6l18.9-6c-0.3-0.9-0.8-1.8-1.5-2.5c-1.4-1.4-3.1-1.9-4.9-1.8c0.1-1.8-0.4-3.5-1.8-4.9
		s-3.1-1.9-4.9-1.8c0.1-1.8-0.4-3.5-1.8-4.9c-0.8-0.8-1.5-1.3-2.4-1.5l-6,19c1,0.3,1.9,0.9,2.6,1.6C10.3,91.7,10.8,92.6,11.2,93.6z"
		/>
	<path class="st4" d="M11.2,93.6c-0.3-1-0.9-1.9-1.6-2.6s-1.6-1.3-2.6-1.6l-2,6.3L11.2,93.6z"/>
</g>
</svg>
